# xmcd
#
# Track frame offsets:
#	150
#	9685
#	21266
#	39051
#	49560
#	62620
#	76264
#	97539
#	109792
#	125477
#	129832
#	140300
#	158213
#
# Disc length: 2268 seconds
#
# Revision: 0
# Processed by: cddbd v1.5.2PL0 Copyright (c) Steve Scherf et al.
# Submitted via: dBpowerAMP V4.0
#
DISCID=9008da0d
DTITLE=Moody Blues - On The Threshold Of A Dream
DYEAR=1900
DGENRE=
TTITLE0=In The Beginning
TTITLE1=Lovely To See You
TTITLE2=Dear Diary
TTITLE3=Send Me No Wine
TTITLE4=To Share Our Love
TTITLE5=So Deep Within You
TTITLE6=Never Comes The Day
TTITLE7=Lazy Day
TTITLE8=Are You Sitting Comfortably
TTITLE9=The Dream
TTITLE10=Have You Heard (Part 1)
TTITLE11=The Voyage
TTITLE12=Have You Heard (Part 2)
EXTD=
EXTT0=
EXTT1=
EXTT2=
EXTT3=
EXTT4=
EXTT5=
EXTT6=
EXTT7=
EXTT8=
EXTT9=
EXTT10=
EXTT11=
EXTT12=
PLAYORDER=
